# xmcd CD database file
#
# Track frame offsets:
#	183
#	30858
#	62733
#	86290
#	113535
#	146835
#	170085
#	224145
#
# Disc length: 3413 seconds
#
# Revision: 0
# Processed by: cddbd v1.4PL0 Copyright (c) Steve Scherf et al.
# Submitted via: CDex 1.50Beta7
#
DISCID=6c0d5308
DTITLE=Joe Nay - Message
DYEAR=1987
DGENRE=Jazz
TTITLE0=Illusion
TTITLE1=Essence
TTITLE2=Struggling Day
TTITLE3=Some More Abstract Truth
TTITLE4=Foreward Motion
TTITLE5=Bobcat
TTITLE6=Two Friends
TTITLE7=Claudia
EXTD=YEAR: 1987
EXTT0=
EXTT1=
EXTT2=
EXTT3=
EXTT4=
EXTT5=
EXTT6=
EXTT7=
PLAYORDER=
